<svg width="457" height="431" viewBox="0 0 457 431" fill="none" xmlns="http://www.w3.org/2000/svg">
<path d="M150.109 321.419C120.112 321.419 95.7969 345.734 95.7969 375.731C95.7969 405.724 120.112 430.039 150.109 430.039C180.102 430.039 204.417 405.724 204.417 375.731C204.386 345.749 180.09 321.45 150.109 321.419V321.419ZM150.109 410.072C131.14 410.072 115.764 394.695 115.764 375.731C115.764 356.762 131.14 341.385 150.109 341.385C169.073 341.385 184.45 356.762 184.45 375.731C184.45 394.695 169.073 410.072 150.109 410.072V410.072Z" fill="#FF6900"/>
<path d="M446.116 93.5009H93.6013L86.414 53.2671C81.9839 28.4997 62.5709 9.12571 37.7957 4.74628L11.7375 0.156259C6.30517 -0.810882 1.12238 2.81199 0.155243 8.24046C-0.807998 13.6728 2.81098 18.8556 8.24335 19.8228L34.399 24.4128C50.9028 27.3376 63.8227 40.2575 66.7476 56.7613L102.087 256.129C106.26 279.984 126.987 297.384 151.205 297.361H360.856C382.882 297.427 402.334 283.01 408.679 261.92L455.6 106.378C456.47 103.344 455.92 100.076 454.103 97.4943C452.204 94.9945 449.252 93.5204 446.116 93.5009V93.5009ZM389.609 256.027C385.842 268.694 374.17 277.359 360.957 277.293H151.306C136.764 277.332 124.316 266.869 121.855 252.533L97.1969 113.366H432.736L389.609 256.027Z" fill="#FF6900"/>
<path d="M359.76 321.419C329.763 321.419 305.448 345.734 305.448 375.731C305.448 405.724 329.763 430.039 359.76 430.039C389.753 430.039 414.068 405.724 414.068 375.731C414.037 345.749 389.741 321.45 359.76 321.419V321.419ZM359.76 410.072C340.792 410.072 325.415 394.695 325.415 375.731C325.415 356.762 340.792 341.385 359.76 341.385C378.724 341.385 394.101 356.762 394.101 375.731C394.101 394.695 378.724 410.072 359.76 410.072V410.072Z" fill="#FF6900"/>
</svg>
