<svg width="126" height="65" viewBox="0 0 126 65" fill="none" xmlns="http://www.w3.org/2000/svg">
<path d="M59.929 28.292C59.929 29.5953 59.5917 30.7913 58.917 31.88C58.2423 32.9686 57.261 33.858 55.973 34.548C54.685 35.238 53.1517 35.6443 51.373 35.767L50.384 41.31C50.0007 43.4413 48.958 44.507 47.256 44.507C46.3207 44.507 45.4543 44.231 44.657 43.679C43.875 43.127 43.2463 42.2836 42.771 41.149C42.2957 40.0143 42.058 38.619 42.058 36.963C42.058 33.8503 42.5563 31.213 43.553 29.051C44.565 26.8736 45.9143 25.2483 47.601 24.175C49.303 23.0863 51.1737 22.542 53.213 22.542C54.6543 22.542 55.8733 22.795 56.87 23.301C57.882 23.807 58.641 24.497 59.147 25.371C59.6683 26.2296 59.929 27.2033 59.929 28.292ZM51.787 33.398C54.9303 32.9993 56.502 31.3663 56.502 28.499C56.502 27.487 56.1647 26.6666 55.49 26.038C54.8307 25.394 53.8033 25.072 52.408 25.072C50.8287 25.072 49.4487 25.5703 48.268 26.567C47.1027 27.5636 46.198 28.9513 45.554 30.73C44.9253 32.4933 44.611 34.5096 44.611 36.779C44.611 37.7296 44.703 38.573 44.887 39.309C45.0863 40.045 45.3317 40.62 45.623 41.034C45.9297 41.4326 46.221 41.632 46.497 41.632C46.8803 41.632 47.1717 41.103 47.371 40.045L48.13 35.698C47.532 35.606 47.2713 35.5676 47.348 35.583C46.888 35.5063 46.589 35.3683 46.451 35.169C46.313 34.9543 46.244 34.686 46.244 34.364C46.244 34.0266 46.336 33.7583 46.52 33.559C46.7193 33.3596 46.9877 33.26 47.325 33.26C47.4783 33.26 47.5933 33.2676 47.67 33.283C48.038 33.3443 48.3217 33.3826 48.521 33.398C48.7203 32.202 49.004 30.5996 49.372 28.591C49.464 28.0696 49.671 27.7016 49.993 27.487C50.3303 27.257 50.7213 27.142 51.166 27.142C51.672 27.142 52.0323 27.2416 52.247 27.441C52.477 27.625 52.592 27.924 52.592 28.338C52.592 28.5833 52.5767 28.7826 52.546 28.936L51.787 33.398ZM70.8698 22.634C71.2685 22.634 71.6058 22.7336 71.8818 22.933C72.1578 23.117 72.2958 23.347 72.2958 23.623C72.2958 24.1136 72.1425 24.5123 71.8358 24.819C71.5291 25.1103 71.0921 25.256 70.5248 25.256C69.6355 25.256 68.9608 25.2636 68.5008 25.279C68.4701 25.463 68.3321 26.291 68.0868 27.763C67.8108 29.4036 67.6421 30.408 67.5808 30.776L67.0978 33.789C66.7605 36.043 66.4921 37.929 66.2928 39.447C66.6148 39.4316 67.0518 39.424 67.6038 39.424C68.4165 39.424 68.9685 39.5313 69.2598 39.746C69.5511 39.9606 69.6968 40.2826 69.6968 40.712C69.6968 41.1106 69.5358 41.448 69.2138 41.724C68.9071 42 68.4701 42.138 67.9028 42.138C67.5195 42.138 66.9138 42.1226 66.0858 42.092C65.3191 42.0613 64.8131 42.046 64.5678 42.046C63.6018 42.046 62.5438 42.1303 61.3938 42.299C60.8878 42.3756 60.5275 42.414 60.3128 42.414C59.9755 42.414 59.6918 42.322 59.4618 42.138C59.2318 41.954 59.1168 41.6856 59.1168 41.333C59.1168 40.781 59.3621 40.3516 59.8528 40.045C60.3435 39.7383 61.0335 39.5773 61.9228 39.562L63.0038 39.539L63.0728 39.033C63.4408 36.5796 63.7091 34.847 63.8778 33.835L64.3838 30.822C64.6905 29.0433 64.9665 27.211 65.2118 25.325L63.2798 25.348C62.7278 25.348 62.3445 25.2636 62.1298 25.095C61.9305 24.911 61.8308 24.658 61.8308 24.336C61.8308 23.2933 62.5821 22.7336 64.0848 22.657C64.7901 22.6263 65.6488 22.611 66.6608 22.611L70.8698 22.634ZM89.8015 36.871C90.0008 36.871 90.1542 36.963 90.2615 37.147C90.3842 37.331 90.4455 37.584 90.4455 37.906C90.4455 38.504 90.2998 38.9793 90.0085 39.332C89.1498 40.3593 88.3142 41.08 87.5015 41.494C86.7042 41.908 85.7382 42.115 84.6035 42.115C83.8062 42.115 83.0702 42.0153 82.3955 41.816C81.7208 41.6166 80.9005 41.3176 79.9345 40.919C79.1065 40.5663 78.3705 40.2826 77.7265 40.068C77.0212 40.8346 76.3848 41.3713 75.8175 41.678C75.2502 41.9693 74.6522 42.115 74.0235 42.115C73.1802 42.115 72.5055 41.9233 71.9995 41.54C71.4935 41.1413 71.2405 40.6276 71.2405 39.999C71.2405 39.5236 71.3938 39.0866 71.7005 38.688C72.0225 38.2893 72.4672 37.975 73.0345 37.745C73.6018 37.515 74.2612 37.4 75.0125 37.4C75.4418 37.4 75.7638 37.4076 75.9785 37.423C78.9838 33.6816 81.6978 29.7333 84.1205 25.578C82.8018 25.348 81.4602 25.233 80.0955 25.233C78.3322 25.233 77.0365 25.44 76.2085 25.854C75.3958 26.2526 74.9895 26.889 74.9895 27.763C74.9895 28.0236 75.0202 28.246 75.0815 28.43C75.1428 28.614 75.2348 28.8286 75.3575 29.074C75.4955 29.35 75.5645 29.5493 75.5645 29.672C75.5645 29.9786 75.4188 30.2393 75.1275 30.454C74.8515 30.6533 74.5295 30.753 74.1615 30.753C73.7782 30.753 73.4638 30.638 73.2185 30.408C72.9272 30.1473 72.6895 29.7946 72.5055 29.35C72.3368 28.89 72.2525 28.3763 72.2525 27.809C72.2525 26.015 72.9962 24.6886 74.4835 23.83C75.9708 22.9713 77.9335 22.542 80.3715 22.542C81.5828 22.542 82.8172 22.611 84.0745 22.749C85.3472 22.887 86.5355 23.1093 87.6395 23.416C88.0995 23.5386 88.4062 23.715 88.5595 23.945C88.7128 24.1596 88.7895 24.4433 88.7895 24.796C88.7895 25.21 88.6822 25.532 88.4675 25.762C88.2528 25.992 87.9538 26.107 87.5705 26.107H87.4095C85.7535 28.8056 84.0745 31.397 82.3725 33.881C81.0078 35.859 80.0495 37.2006 79.4975 37.906C80.3868 38.1053 81.1612 38.2893 81.8205 38.458C82.6332 38.6726 83.2848 38.8336 83.7755 38.941C84.2815 39.033 84.7185 39.079 85.0865 39.079C85.9758 39.079 86.7348 38.9333 87.3635 38.642C88.0075 38.3353 88.6132 37.8523 89.1805 37.193C89.3645 36.9783 89.5715 36.871 89.8015 36.871ZM106.378 36.871C106.577 36.871 106.73 36.963 106.838 37.147C106.96 37.331 107.022 37.584 107.022 37.906C107.022 38.504 106.876 38.9793 106.585 39.332C105.726 40.3593 104.89 41.08 104.078 41.494C103.28 41.908 102.314 42.115 101.18 42.115C100.382 42.115 99.6463 42.0153 98.9717 41.816C98.297 41.6166 97.4767 41.3176 96.5107 40.919C95.6827 40.5663 94.9467 40.2826 94.3027 40.068C93.5973 40.8346 92.961 41.3713 92.3937 41.678C91.8263 41.9693 91.2283 42.115 90.5997 42.115C89.7563 42.115 89.0817 41.9233 88.5757 41.54C88.0697 41.1413 87.8167 40.6276 87.8167 39.999C87.8167 39.5236 87.97 39.0866 88.2767 38.688C88.5987 38.2893 89.0433 37.975 89.6107 37.745C90.178 37.515 90.8373 37.4 91.5887 37.4C92.018 37.4 92.34 37.4076 92.5547 37.423C95.56 33.6816 98.274 29.7333 100.697 25.578C99.378 25.348 98.0363 25.233 96.6717 25.233C94.9083 25.233 93.6127 25.44 92.7847 25.854C91.972 26.2526 91.5657 26.889 91.5657 27.763C91.5657 28.0236 91.5963 28.246 91.6577 28.43C91.719 28.614 91.811 28.8286 91.9337 29.074C92.0717 29.35 92.1407 29.5493 92.1407 29.672C92.1407 29.9786 91.995 30.2393 91.7037 30.454C91.4277 30.6533 91.1057 30.753 90.7377 30.753C90.3543 30.753 90.04 30.638 89.7947 30.408C89.5033 30.1473 89.2657 29.7946 89.0817 29.35C88.913 28.89 88.8287 28.3763 88.8287 27.809C88.8287 26.015 89.5723 24.6886 91.0597 23.83C92.547 22.9713 94.5097 22.542 96.9477 22.542C98.159 22.542 99.3933 22.611 100.651 22.749C101.923 22.887 103.112 23.1093 104.216 23.416C104.676 23.5386 104.982 23.715 105.136 23.945C105.289 24.1596 105.366 24.4433 105.366 24.796C105.366 25.21 105.258 25.532 105.044 25.762C104.829 25.992 104.53 26.107 104.147 26.107H103.986C102.33 28.8056 100.651 31.397 98.9487 33.881C97.584 35.859 96.6257 37.2006 96.0737 37.906C96.963 38.1053 97.7373 38.2893 98.3967 38.458C99.2093 38.6726 99.861 38.8336 100.352 38.941C100.858 39.033 101.295 39.079 101.663 39.079C102.552 39.079 103.311 38.9333 103.94 38.642C104.584 38.3353 105.189 37.8523 105.757 37.193C105.941 36.9783 106.148 36.871 106.378 36.871ZM110.948 42.115C109.89 42.115 108.932 41.8543 108.073 41.333C107.23 40.8116 106.563 40.0603 106.072 39.079C105.581 38.0823 105.336 36.9093 105.336 35.56C105.336 33.2293 105.834 31.075 106.831 29.097C107.828 27.1036 109.3 25.509 111.247 24.313C113.194 23.1016 115.533 22.496 118.262 22.496C118.967 22.496 119.719 22.5496 120.516 22.657C121.329 22.7643 122.065 22.9253 122.724 23.14C123.153 23.2626 123.368 23.5693 123.368 24.06C123.368 24.4586 123.215 24.8343 122.908 25.187C122.617 25.5396 122.272 25.716 121.873 25.716C121.75 25.716 121.658 25.7083 121.597 25.693C120.8 25.509 120.117 25.3786 119.55 25.302C118.983 25.21 118.385 25.164 117.756 25.164C115.809 25.164 114.153 25.6393 112.788 26.59C111.423 27.5253 110.404 28.7673 109.729 30.316C109.054 31.8646 108.717 33.536 108.717 35.33C108.717 36.6333 108.97 37.6453 109.476 38.366C109.997 39.0713 110.672 39.424 111.5 39.424C112.435 39.424 113.256 39.0406 113.961 38.274C114.666 37.5073 115.31 36.2653 115.893 34.548C116.476 32.8306 117.051 30.5 117.618 27.556C117.71 27.1266 117.894 26.8353 118.17 26.682C118.446 26.5286 118.814 26.452 119.274 26.452C120.363 26.452 120.907 26.8046 120.907 27.51C120.907 27.6326 120.884 27.786 120.838 27.97C120.439 29.4573 120.071 31.1056 119.734 32.915C119.412 34.709 119.251 36.0736 119.251 37.009C119.251 37.837 119.374 38.4426 119.619 38.826C119.864 39.194 120.24 39.378 120.746 39.378C121.237 39.378 121.704 39.217 122.149 38.895C122.594 38.5576 123.153 37.9903 123.828 37.193C124.012 36.9783 124.219 36.871 124.449 36.871C124.648 36.871 124.802 36.963 124.909 37.147C125.032 37.331 125.093 37.584 125.093 37.906C125.093 38.504 124.947 38.9793 124.656 39.332C123.905 40.2366 123.169 40.9266 122.448 41.402C121.727 41.8773 120.846 42.115 119.803 42.115C118.73 42.115 117.863 41.8083 117.204 41.195C116.545 40.5663 116.131 39.6846 115.962 38.55C114.827 40.9266 113.156 42.115 110.948 42.115Z" fill="black"/>
<path d="M88.7227 14.3984C88.7227 13.8125 88.5938 13.3203 88.3359 12.9219C88.0859 12.5156 87.707 12.3125 87.1992 12.3125C86.6758 12.3125 86.2891 12.5117 86.0391 12.9102C85.7891 13.3086 85.6641 13.8047 85.6641 14.3984C85.6641 14.9922 85.7891 15.4883 86.0391 15.8867C86.2891 16.2773 86.6758 16.4727 87.1992 16.4727C87.707 16.4727 88.0859 16.2773 88.3359 15.8867C88.5938 15.4883 88.7227 14.9922 88.7227 14.3984ZM89.1445 12.4062C89.5352 12.9062 89.7305 13.5703 89.7305 14.3984C89.7305 15.2266 89.5352 15.8945 89.1445 16.4023C88.7539 16.9102 88.1406 17.1641 87.3047 17.1641C86.8047 17.1641 86.2578 16.9297 85.6641 16.4609V19.0742H84.7148V11.7852H85.6641V12.4531C85.9531 12.1875 86.2188 11.9883 86.4609 11.8555C86.7031 11.7227 86.9844 11.6562 87.3047 11.6562C88.1406 11.6562 88.7539 11.9062 89.1445 12.4062ZM94.3008 14.4336C94.0664 14.4102 93.8906 14.3984 93.7734 14.3984C93.5703 14.3984 93.3633 14.418 93.1523 14.457C92.9414 14.4883 92.7227 14.543 92.4961 14.6211C92.2773 14.6914 92.0938 14.8047 91.9453 14.9609C91.8047 15.1172 91.7344 15.3008 91.7344 15.5117C91.7344 15.793 91.832 16.0195 92.0273 16.1914C92.2305 16.3555 92.4766 16.4375 92.7656 16.4375C93.3594 16.4375 93.7617 16.2617 93.9727 15.9102C94.1914 15.5586 94.3008 15.0664 94.3008 14.4336ZM95.4023 17H94.4766C94.4219 16.7578 94.3789 16.5078 94.3477 16.25C94.0977 16.5703 93.8555 16.8008 93.6211 16.9414C93.3867 17.0742 93.1016 17.1406 92.7656 17.1406C92.2656 17.1406 91.8047 17.0078 91.3828 16.7422C90.9688 16.4688 90.7617 16.0977 90.7617 15.6289C90.7617 15.2539 90.8477 14.9336 91.0195 14.668C91.1914 14.4023 91.4258 14.207 91.7227 14.082C92.0195 13.9492 92.3203 13.8555 92.625 13.8008C92.9297 13.7461 93.2539 13.7188 93.5977 13.7188H94.3125C94.3281 13.5781 94.3359 13.4727 94.3359 13.4023C94.3359 12.707 93.9492 12.3594 93.1758 12.3594C92.8633 12.3594 92.5898 12.4297 92.3555 12.5703C92.1289 12.7031 92.0156 12.9102 92.0156 13.1914H91.043C91.043 12.168 91.7422 11.6562 93.1406 11.6562C94.2734 11.6562 94.9453 11.9492 95.1562 12.5352C95.2266 12.7148 95.2617 13.1445 95.2617 13.8242V15.5352C95.2617 16.2773 95.3086 16.7656 95.4023 17ZM100.945 15.2422C100.945 15.7812 100.777 16.2344 100.441 16.6016C100.105 16.9609 99.5742 17.1406 98.8477 17.1406C97.3164 17.1406 96.5508 16.2266 96.5508 14.3984C96.5508 13.4688 96.7227 12.7812 97.0664 12.3359C97.418 11.8828 97.9766 11.6562 98.7422 11.6562C99.4531 11.6562 99.9883 11.7969 100.348 12.0781C100.715 12.3594 100.898 12.7383 100.898 13.2148C100.898 13.3008 100.895 13.3672 100.887 13.4141H99.9609C99.9688 13.3672 99.9727 13.3008 99.9727 13.2148C99.9727 12.6445 99.5391 12.3594 98.6719 12.3594C97.875 12.3594 97.4766 13.0391 97.4766 14.3984C97.4766 15.125 97.5898 15.6484 97.8164 15.9688C98.0508 16.2812 98.3945 16.4375 98.8477 16.4375C99.2539 16.4375 99.5469 16.3125 99.7266 16.0625C99.9141 15.8047 100.008 15.5312 100.008 15.2422H100.945ZM110.074 17H109.125V13.625C109.125 13.2188 109.027 12.8984 108.832 12.6641C108.637 12.4297 108.344 12.3125 107.953 12.3125C107.594 12.3125 107.281 12.457 107.016 12.7461C106.75 13.0273 106.617 13.3203 106.617 13.625V17H105.668V13.625C105.668 13.2734 105.559 12.9688 105.34 12.7109C105.129 12.4453 104.855 12.3125 104.52 12.3125C104.137 12.3125 103.805 12.457 103.523 12.7461C103.25 13.0352 103.113 13.3281 103.113 13.625V17H102.164V11.7852H103.113V12.5C103.535 11.9375 104.051 11.6562 104.66 11.6562C105.137 11.6562 105.5 11.7266 105.75 11.8672C106.008 12.0078 106.238 12.2422 106.441 12.5703C106.887 11.9609 107.449 11.6562 108.129 11.6562C109.426 11.6562 110.074 12.3125 110.074 13.625V17ZM114.844 14.4336C114.609 14.4102 114.434 14.3984 114.316 14.3984C114.113 14.3984 113.906 14.418 113.695 14.457C113.484 14.4883 113.266 14.543 113.039 14.6211C112.82 14.6914 112.637 14.8047 112.488 14.9609C112.348 15.1172 112.277 15.3008 112.277 15.5117C112.277 15.793 112.375 16.0195 112.57 16.1914C112.773 16.3555 113.02 16.4375 113.309 16.4375C113.902 16.4375 114.305 16.2617 114.516 15.9102C114.734 15.5586 114.844 15.0664 114.844 14.4336ZM115.945 17H115.02C114.965 16.7578 114.922 16.5078 114.891 16.25C114.641 16.5703 114.398 16.8008 114.164 16.9414C113.93 17.0742 113.645 17.1406 113.309 17.1406C112.809 17.1406 112.348 17.0078 111.926 16.7422C111.512 16.4688 111.305 16.0977 111.305 15.6289C111.305 15.2539 111.391 14.9336 111.562 14.668C111.734 14.4023 111.969 14.207 112.266 14.082C112.562 13.9492 112.863 13.8555 113.168 13.8008C113.473 13.7461 113.797 13.7188 114.141 13.7188H114.855C114.871 13.5781 114.879 13.4727 114.879 13.4023C114.879 12.707 114.492 12.3594 113.719 12.3594C113.406 12.3594 113.133 12.4297 112.898 12.5703C112.672 12.7031 112.559 12.9102 112.559 13.1914H111.586C111.586 12.168 112.285 11.6562 113.684 11.6562C114.816 11.6562 115.488 11.9492 115.699 12.5352C115.77 12.7148 115.805 13.1445 115.805 13.8242V15.5352C115.805 16.2773 115.852 16.7656 115.945 17ZM121.816 17H120.891V13.543C120.891 13.1914 120.762 12.8945 120.504 12.6523C120.254 12.4023 119.953 12.2773 119.602 12.2773C119.227 12.2773 118.902 12.4062 118.629 12.6641C118.363 12.9219 118.23 13.2422 118.23 13.625V17H117.281V11.7852H118.23V12.4531C118.605 11.9219 119.133 11.6562 119.812 11.6562C121.148 11.6562 121.816 12.2969 121.816 13.5781V17Z" fill="black"/>
<path d="M31.9539 32.9194L13.0846 45.0624C12.9999 45.5935 13.1315 46.1423 13.4502 46.5754C17.7199 52.3715 24.4479 55.7965 31.5933 55.9146C32.1105 55.9231 32.6366 55.7277 33.0349 55.3349C33.0351 55.3352 33.0353 55.3355 33.0358 55.3356L31.9539 32.9194Z" fill="#FFA000"/>
<path d="M11.9998 22.648C12 22.6483 12 22.6483 11.9999 22.6488C11.4982 22.8406 11.0897 23.2286 10.8756 23.7208C8.02553 30.2675 8.34967 37.8103 11.8591 44.1028C12.1211 44.5723 12.5661 44.9194 13.0847 45.0623L31.9539 32.9193L11.9998 22.648Z" fill="#FFA000"/>
<path d="M30.8724 10.5029C30.4562 10.1643 29.9176 10.003 29.3857 10.0624C22.2669 10.8566 15.8903 14.9572 12.2151 21.1122C11.9405 21.5719 11.8644 22.1288 12.0002 22.6478L31.954 32.9193L30.8724 10.5029Z" fill="#FFA000"/>
<path d="M33.0357 55.3356C33.4518 55.6742 33.9902 55.8357 34.5224 55.7761C41.6407 54.9818 48.0177 50.8813 51.6929 44.7263C52.2882 43.7298 51.9091 42.4337 50.8771 41.9021L33.2997 32.8545L31.9538 32.9193L33.0357 55.3356Z" fill="#FFA000"/>
<path d="M50.4576 19.2634C46.188 13.4667 39.4598 10.0422 32.3147 9.92395C31.7781 9.91497 31.2557 10.1259 30.873 10.5033C30.8728 10.503 30.8723 10.5029 30.8723 10.5029L31.9539 32.9193L33.2998 32.8545L49.9208 22.1583C50.8998 21.5283 51.1469 20.1991 50.4576 19.2634Z" fill="#FFA000"/>
<path d="M28.0599 35.4252L29.0397 55.7282C29.8872 55.8376 30.7402 55.9005 31.5932 55.9146C32.1103 55.9231 32.6365 55.7277 33.0345 55.3351C33.0349 55.3352 33.0351 55.3355 33.0353 55.3358L31.9537 32.9194L28.0599 35.4252Z" fill="#F57C00"/>
<path d="M11.9998 22.648C12 22.6483 12 22.6483 11.9999 22.6488C11.4982 22.8406 11.0897 23.2286 10.8756 23.7208C10.776 23.9493 10.6814 24.1796 10.5897 24.4114L27.9603 33.353L11.704 43.8145C11.7558 43.9105 11.8061 44.0075 11.8591 44.1028C12.1211 44.5723 12.5661 44.9194 13.0847 45.0623L31.9539 32.9193L11.9998 22.648Z" fill="#F57C00"/>
<path d="M29.3855 10.0624C28.344 10.1788 27.322 10.3649 26.3206 10.617C26.5207 10.6931 26.71 10.7992 26.8783 10.9363L27.8368 30.8002L31.9538 32.9193L30.8722 10.5029C30.4561 10.1643 29.9174 10.003 29.3855 10.0624Z" fill="#F57C00"/>
<path d="M50.8772 41.9025L33.2997 32.8545L31.9537 32.9194L32.0394 34.6951L46.8834 42.3358C47.9151 42.8671 48.294 44.1633 47.6992 45.16C44.4527 50.5972 39.2185 54.2402 33.5935 55.6552C33.8874 55.7669 34.2058 55.8116 34.5223 55.7762C38.0611 55.3814 41.3841 54.1974 44.3988 52.2574C47.4135 50.3173 49.8675 47.7836 51.6929 44.7263C52.2881 43.7298 51.909 42.4338 50.8772 41.9025V41.9025Z" fill="#F57C00"/>
<path d="M50.4576 18.7232C46.188 12.9265 39.4598 9.50205 32.3147 9.38375C31.7781 9.37477 31.2557 9.58574 30.873 9.9631C30.8728 9.96281 30.8723 9.9627 30.8723 9.9627L30.8743 10.004C37.1823 10.8183 42.7712 14.1437 46.4639 19.1569C47.1528 20.0924 46.9059 21.4215 45.9267 22.0517L31.8915 31.0838L31.9539 32.3792L33.2998 32.3143L49.9208 21.6181C50.8998 20.9882 51.1469 19.6589 50.4576 18.7232Z" fill="#F57C00"/>
<path d="M16.2954 42.996C16.898 43.9324 17.287 45.0168 18.0174 45.808C18.768 46.6216 19.8212 47.0928 20.6829 47.7477C21.5604 48.4146 22.2981 49.3004 23.2655 49.7971C24.2423 50.2987 25.3933 50.381 26.4357 50.7039C27.4811 51.0273 28.4774 51.6099 29.5626 51.7482C30.6452 51.8863 31.755 51.5732 32.8513 51.5212L31.9537 32.9193L16.2954 42.996Z" fill="#FFE082"/>
<path d="M28.06 35.4251L28.8405 51.5941C29.0778 51.6626 29.3182 51.717 29.5628 51.7482C30.6453 51.8863 31.7551 51.5731 32.8514 51.5212L31.9539 32.9193L28.06 35.4251Z" fill="#FFCA28"/>
<path d="M32.8513 51.5212C33.9334 51.4692 35.072 51.6788 36.148 51.4351C37.2039 51.1958 38.1385 50.5222 39.159 50.0925C40.1516 49.675 41.2885 49.4825 42.2249 48.8799C43.1616 48.2771 43.8078 47.322 44.599 46.5917C45.4127 45.841 46.4132 45.2693 47.0684 44.4074C47.3976 43.974 47.6329 43.4816 47.846 42.9776C48.2139 42.1094 47.8552 41.1053 47.0169 40.6736C42.9441 38.577 31.9538 32.9193 31.9538 32.9193L32.8513 51.5212Z" fill="#FFE082"/>
<path d="M31.9537 32.9194L32.077 35.4722L44.5186 41.8766C43.9188 43.1268 43.6945 44.0253 43.0747 44.8411C42.4195 45.7031 41.4189 46.2748 40.605 47.0256C39.8136 47.7556 39.1676 48.711 38.2312 49.3136C37.2948 49.9162 36.1576 50.1084 35.1653 50.5262C34.482 50.814 33.8368 51.2109 33.1684 51.5133C34.1572 51.5064 35.1772 51.655 36.1479 51.4351C37.2039 51.1959 38.1387 50.5221 39.1595 50.0926C40.1515 49.675 41.2884 49.4826 42.2252 48.8797C43.1616 48.2771 43.8078 47.3221 44.5992 46.592C45.4126 45.8411 46.4132 45.2694 47.0684 44.4074C47.3977 43.9743 47.6328 43.4816 47.8462 42.9779C48.2138 42.1095 47.8555 41.1051 47.0174 40.6738C42.944 38.577 31.9537 32.9194 31.9537 32.9194V32.9194Z" fill="#FFCA28"/>
<path d="M15.3952 24.3959C14.8937 25.3721 14.149 26.2525 13.8261 27.2949C13.5022 28.3402 13.6196 29.4883 13.4814 30.5738C13.3433 31.6563 12.9411 32.7382 12.9931 33.8345C13.0444 34.9208 13.5451 35.9595 13.7884 37.0341C14.0276 38.0901 14.02 39.2435 14.4495 40.2638C14.867 41.2563 15.6928 42.0596 16.2954 42.996L31.9537 32.9193L15.3952 24.3959Z" fill="#FFE082"/>
<path d="M15.3954 24.3959C15.0602 25.0481 14.6168 25.6581 14.2628 26.302L25.1936 31.9287C26.4232 32.5618 26.5065 34.2886 25.3434 35.0371L15.2263 41.5478C15.5819 42.0251 15.9708 42.4913 16.2956 42.996L31.9539 32.9193L15.3954 24.3959Z" fill="#FFCA28"/>
<path d="M27.76 14.4034C26.704 14.6427 25.7692 15.3165 24.7489 15.746C23.7564 16.1635 22.6195 16.356 21.6827 16.9588C20.7463 17.5614 20.1001 18.5165 19.3089 19.2468C18.4953 19.9975 17.4947 20.5692 16.8395 21.4311C16.1729 22.3083 15.8925 23.4278 15.3958 24.3952C15.3955 24.3954 15.3957 24.3957 15.3957 24.3957L31.9539 32.9194L31.0564 14.3175L31.0559 14.3174C29.9696 14.3687 28.8346 14.1601 27.76 14.4034V14.4034Z" fill="#FFE082"/>
<path d="M31.0558 14.3174C29.9695 14.3687 28.8345 14.1601 27.7599 14.4034C27.5198 14.4578 27.2863 14.5359 27.0564 14.6274L27.8368 30.8002L31.9538 32.9193L31.0563 14.3175L31.0558 14.3174Z" fill="#FFCA28"/>
<path d="M46.4683 23.5788C47.0987 23.1731 47.3138 22.3524 46.963 21.6892C46.6486 21.0943 46.332 20.5089 45.8905 20.0305C45.1399 19.2169 44.0864 18.7459 43.2247 18.091C42.3472 17.4241 41.6098 16.5381 40.6422 16.0411C39.6656 15.5398 38.5146 15.4575 37.4722 15.1346C36.4266 14.8108 35.4305 14.2286 34.345 14.0904C33.2627 13.9522 32.1529 14.2653 31.0563 14.3175L31.9539 32.9193L39.5834 28.0095L42.017 31.7912C42.5143 32.5646 43.5444 32.7878 44.3176 32.2902C45.2118 31.7147 45.3614 30.6469 44.875 29.891L44.5406 29.3713C44.2211 28.8749 44.3648 28.2136 44.8612 27.8942C45.3576 27.5747 46.019 27.7179 46.3384 28.2143L48.9371 32.2525C49.3284 32.8605 50.1384 33.0361 50.7461 32.6451C51.354 32.2539 51.5297 31.4438 51.1385 30.8359L46.4683 23.5788Z" fill="#FFE082"/>
<path d="M45.8905 20.0305C45.1399 19.2169 44.0864 18.7459 43.2247 18.091C42.3472 17.4241 41.6098 16.5381 40.6422 16.0411C39.6656 15.5398 38.5146 15.4575 37.4722 15.1346C36.4266 14.8108 35.4305 14.2286 34.345 14.0904C33.2627 13.9522 32.1529 14.2653 31.0563 14.3175L31.0739 14.678C31.8889 14.9127 32.6687 15.3178 33.4782 15.5685C34.5206 15.8913 35.6719 15.9734 36.6482 16.4749C37.6156 16.9717 38.3536 17.8577 39.2308 18.5244C40.0927 19.1796 41.146 19.6503 41.8969 20.4642C41.904 20.4721 41.9112 20.48 41.9186 20.4882C43.0858 21.7741 42.791 23.8089 41.3307 24.7486L31.854 30.8472L31.9539 32.9193L43.4468 25.5232L44.9425 27.8473C45.4276 27.5914 46.0361 27.7445 46.3384 28.2143L48.9373 32.2528C49.3286 32.8607 50.1384 33.0361 50.7461 32.6451C51.354 32.2539 51.5297 31.4438 51.1387 30.8362L46.4683 23.5788C47.0984 23.1733 47.3138 22.3524 46.963 21.6892C46.6486 21.0943 46.332 20.5089 45.8905 20.0305V20.0305Z" fill="#FFCA28"/>
<path d="M39.5206 43.4461C40.3188 44.6865 39.9602 46.3387 38.7201 47.1368C37.4797 47.935 35.8273 47.5769 35.0291 46.3365C34.2309 45.0961 34.5895 43.4438 35.8299 42.6456C37.07 41.8476 38.7223 42.2057 39.5206 43.4461V43.4461Z" fill="#EF5350"/>
<path d="M30.2271 44.3907C31.0253 45.6311 30.6672 47.2835 29.4268 48.0817C28.1864 48.8799 26.5341 48.5213 25.7359 47.2809C24.9378 46.0408 25.296 44.3885 26.5364 43.5902C27.7768 42.792 29.429 43.1506 30.2271 44.3907Z" fill="#EF5350"/>
<path d="M24.6312 31.6341C25.4294 32.8745 25.071 34.527 23.8306 35.3253C22.5905 36.1233 20.9379 35.7649 20.1397 34.5245C19.3416 33.2844 19.7001 31.6318 20.9402 30.8338C22.1806 30.0355 23.8331 30.394 24.6312 31.6341Z" fill="#EF5350"/>
<path d="M24.4493 20.9899C25.2475 22.2303 24.8891 23.8829 23.6487 24.6811C22.4083 25.4794 20.756 25.1208 19.9578 23.8804C19.1598 22.6402 19.5179 20.9879 20.7583 20.1897C21.9987 19.3914 23.6512 19.7498 24.4493 20.9899Z" fill="#EF5350"/>
<path d="M36.1028 17.4215C36.5018 18.0415 36.3226 18.868 35.7025 19.2671C35.0825 19.6661 34.256 19.4868 33.8569 18.8668C33.4577 18.2464 33.6372 17.4202 34.2572 17.0212C34.8773 16.6222 35.7036 16.8011 36.1028 17.4215Z" fill="#FF6F00"/>
<path d="M36.2419 25.5787C36.6409 26.1988 36.462 27.0251 35.8416 27.4243C35.2216 27.8233 34.3954 27.6439 33.9963 27.0238C33.5973 26.4038 33.7763 25.5774 34.3963 25.1784C35.0167 24.7792 35.8429 24.9587 36.2419 25.5787Z" fill="#FF6F00"/>
<path d="M29.0037 17.2261C29.4029 17.8464 29.2238 18.6724 28.6034 19.0717C27.9834 19.4707 27.1573 19.2915 26.7581 18.6712C26.3591 18.0511 26.5382 17.2251 27.1583 16.8261C27.7786 16.4268 28.6047 16.606 29.0037 17.2261Z" fill="#FF6F00"/>
<path d="M29.0696 25.9697C29.4686 26.5897 29.2894 27.4158 28.6691 27.815C28.049 28.214 27.223 28.0348 26.824 27.4148C26.4248 26.7944 26.6039 25.9684 27.224 25.5694C27.8443 25.1702 28.6703 25.3493 29.0696 25.9697Z" fill="#FF6F00"/>
<path d="M18.7012 37.5078C19.1002 38.1279 18.921 38.9539 18.3007 39.3531C17.6806 39.7522 16.8546 39.573 16.4556 38.953C16.0563 38.3326 16.2355 37.5066 16.8556 37.1076C17.4759 36.7083 18.3019 36.8875 18.7012 37.5078Z" fill="#FF6F00"/>
<path d="M28.5777 38.6841C28.9769 39.3044 28.7975 40.1307 28.1774 40.5297C27.5571 40.9289 26.7311 40.7497 26.3318 40.1294C25.9328 39.5093 26.112 38.6833 26.7323 38.2841C27.3524 37.8851 28.1787 38.064 28.5777 38.6841V38.6841Z" fill="#FF6F00"/>
<path d="M17.9597 27.8965C17.4028 27.4131 16.5594 27.473 16.0762 28.0302C15.5928 28.5871 15.6527 29.4304 16.2096 29.9138C16.7668 30.397 17.6101 30.3372 18.0933 29.78C18.5767 29.2231 18.5169 28.3797 17.9597 27.8965Z" fill="#FF6F00"/>
<path d="M23.0661 43.4024C23.4654 44.0228 23.2862 44.8488 22.6661 45.2478C22.0458 45.6471 21.2198 45.4679 20.8206 44.8476C20.4215 44.2275 20.6005 43.4012 21.2208 43.002C21.8409 42.6029 22.6671 42.7824 23.0661 43.4024V43.4024Z" fill="#FF6F00"/>
<path d="M44.4427 41.8667C44.8417 42.4868 44.6624 43.3133 44.0424 43.7123C43.4223 44.1113 42.5958 43.9321 42.1968 43.312C41.7976 42.6917 41.977 41.8654 42.5971 41.4664C43.2171 41.0674 44.0434 41.2463 44.4427 41.8667V41.8667Z" fill="#FF6F00"/>
<path d="M36.6899 37.8112C37.0889 38.4312 36.91 39.2575 36.2896 39.6568C35.6696 40.0558 34.8434 39.8763 34.4443 39.2563C34.0451 38.6359 34.2243 37.8099 34.8443 37.4109C35.4647 37.0117 36.2907 37.1908 36.6899 37.8112Z" fill="#FF6F00"/>
<path d="M42.3397 20.4518C43.1379 21.6922 42.7795 23.3448 41.5394 24.1428C40.299 24.9411 38.6464 24.5826 37.8482 23.3422C37.0501 22.1021 37.4086 20.4496 38.649 19.6513C39.8891 18.8533 41.5416 19.2117 42.3397 20.4518Z" fill="#EF5350"/>
<path d="M36.329 42.3938C36.7032 42.6004 37.033 42.9002 37.2808 43.2853C38.1978 44.7102 37.5729 46.6231 35.9814 47.2279C36.8134 47.6874 37.8646 47.6874 38.7202 47.1368C39.9606 46.3386 40.3189 44.6865 39.5207 43.4461C38.8258 42.3662 37.4833 41.9552 36.329 42.3938Z" fill="#D32F2F"/>
<path d="M27.0355 43.3384C27.4099 43.5453 27.7397 43.8451 27.9874 44.2299C28.7854 45.47 28.427 47.1226 27.1869 47.9206C27.0267 48.0238 26.8592 48.1073 26.6879 48.1725C27.5201 48.6323 28.5714 48.6323 29.4269 48.0817C30.6673 47.2835 31.0255 45.6311 30.2272 44.3907C29.5323 43.3109 28.1898 42.8998 27.0355 43.3384V43.3384Z" fill="#D32F2F"/>
<path d="M21.4393 30.5819C21.8137 30.7888 22.1438 31.0885 22.3915 31.4733C23.1897 32.7137 22.8311 34.366 21.5907 35.1642C21.4305 35.2673 21.263 35.3509 21.0917 35.416C21.9239 35.8759 22.9755 35.8757 23.8307 35.3253C25.0711 34.527 25.4296 32.8745 24.6313 31.6341C23.9364 30.5542 22.5936 30.1434 21.4393 30.5819Z" fill="#D32F2F"/>
<path d="M21.2572 19.9379C21.6316 20.1448 21.9617 20.4444 22.2094 20.8292C23.0074 22.0693 22.649 23.7219 21.4086 24.5201C21.2483 24.6233 21.0809 24.7068 20.9096 24.772C21.7418 25.2318 22.7934 25.2316 23.6486 24.6812C24.889 23.883 25.2474 22.2304 24.4492 20.99C23.7543 19.9102 22.4115 19.4993 21.2572 19.9379Z" fill="#D32F2F"/>
<path d="M39.1476 19.3997C39.522 19.6066 39.8521 19.9062 40.0997 20.291C40.8978 21.5311 40.5394 23.1837 39.299 23.9819C39.1387 24.085 38.9716 24.1684 38.8 24.2338C39.6322 24.6936 40.6837 24.6934 41.5393 24.1428C42.7794 23.3447 43.1378 21.6922 42.3396 20.4518C41.6447 19.3719 40.3021 18.9609 39.1476 19.3997V19.3997Z" fill="#D32F2F"/>
</svg>
