<svg width="45" height="45" viewBox="0 0 45 45" fill="none" xmlns="http://www.w3.org/2000/svg">
<path d="M22.0865 22.8154L8.96009 31.2627C8.90115 31.6322 8.9927 32.014 9.21441 32.3152C12.1846 36.3473 16.865 38.7299 21.8357 38.8121C22.1955 38.818 22.5615 38.6821 22.8386 38.4088C22.8387 38.409 22.8388 38.4092 22.8392 38.4093L22.0865 22.8154Z" fill="#FFA000"/>
<path d="M8.20547 15.6702C8.2056 15.6704 8.2056 15.6704 8.20552 15.6707C7.8565 15.8041 7.57237 16.0741 7.42339 16.4164C5.44074 20.9707 5.66623 26.2178 8.10756 30.5952C8.28986 30.9218 8.59943 31.1633 8.96013 31.2628L22.0866 22.8154L8.20547 15.6702Z" fill="#FFA000"/>
<path d="M21.3341 7.22135C21.0446 6.98581 20.6699 6.87362 20.2999 6.9149C15.3477 7.46739 10.9118 10.32 8.35514 14.6017C8.16407 14.9215 8.11114 15.3089 8.20559 15.67L22.0865 22.8154L21.3341 7.22135Z" fill="#FFA000"/>
<path d="M22.839 38.4093C23.1285 38.6449 23.503 38.7572 23.8732 38.7158C28.8251 38.1632 33.2613 35.3107 35.8179 31.029C36.232 30.3357 35.9683 29.4341 35.2504 29.0643L23.0227 22.7703L22.0864 22.8154L22.839 38.4093Z" fill="#FFA000"/>
<path d="M34.9586 13.3156C31.9885 9.28314 27.308 6.90091 22.3375 6.81862C21.9642 6.81237 21.6008 6.95913 21.3345 7.22165C21.3344 7.22144 21.3341 7.22137 21.3341 7.22137L22.0865 22.8154L23.0228 22.7703L34.5852 15.3295C35.2662 14.8912 35.4382 13.9665 34.9586 13.3156Z" fill="#FFA000"/>
<path d="M19.3775 24.5586L20.0591 38.6824C20.6487 38.7585 21.2421 38.8023 21.8354 38.8121C22.1952 38.8181 22.5612 38.6821 22.8381 38.409C22.8384 38.4091 22.8385 38.4093 22.8387 38.4095L22.0863 22.8154L19.3775 24.5586Z" fill="#F57C00"/>
<path d="M8.20547 15.6702C8.2056 15.6704 8.2056 15.6704 8.20552 15.6707C7.8565 15.8041 7.57237 16.0741 7.42339 16.4164C7.35411 16.5754 7.28827 16.7357 7.2245 16.8969L19.3084 23.1171L7.99967 30.3947C8.0357 30.4615 8.0707 30.529 8.10756 30.5952C8.28986 30.9218 8.59943 31.1633 8.96013 31.2628L22.0866 22.8154L8.20547 15.6702Z" fill="#F57C00"/>
<path d="M20.2998 6.9149C19.5753 6.99588 18.8643 7.12537 18.1677 7.30073C18.3069 7.35371 18.4386 7.42749 18.5557 7.52284L19.2225 21.3412L22.0865 22.8154L21.3341 7.22136C21.0446 6.98581 20.6698 6.87362 20.2998 6.9149Z" fill="#F57C00"/>
<path d="M35.2506 29.0645L23.0227 22.7703L22.0864 22.8154L22.146 24.0507L32.4723 29.366C33.19 29.7356 33.4535 30.6373 33.0398 31.3307C30.7813 35.113 27.1402 37.6473 23.2271 38.6317C23.4316 38.7094 23.6531 38.7405 23.8733 38.7158C26.335 38.4412 28.6467 37.6176 30.7439 36.268C32.841 34.9184 34.5482 33.1558 35.818 31.029C36.2321 30.3357 35.9684 29.4341 35.2506 29.0645V29.0645Z" fill="#F57C00"/>
<path d="M34.9586 12.9398C31.9885 8.90734 27.308 6.52512 22.3375 6.44283C21.9642 6.43658 21.6008 6.58334 21.3345 6.84585C21.3344 6.84565 21.3341 6.84557 21.3341 6.84557L21.3354 6.87431C25.7236 7.4408 29.6116 9.75412 32.1804 13.2415C32.6596 13.8923 32.4879 14.8169 31.8067 15.2553L22.0431 21.5385L22.0865 22.4396L23.0228 22.3945L34.5852 14.9537C35.2662 14.5155 35.4382 13.5907 34.9586 12.9398Z" fill="#F57C00"/>
<path d="M11.1937 29.8253C11.6129 30.4767 11.8835 31.231 12.3916 31.7814C12.9138 32.3474 13.6464 32.6752 14.2459 33.1308C14.8563 33.5948 15.3695 34.2109 16.0425 34.5565C16.722 34.9054 17.5227 34.9627 18.2478 35.1873C18.975 35.4123 19.6681 35.8175 20.4231 35.9138C21.1761 36.0098 21.9482 35.792 22.7108 35.7559L22.0865 22.8154L11.1937 29.8253Z" fill="#FFE082"/>
<path d="M19.3778 24.5586L19.9207 35.8066C20.0858 35.8542 20.253 35.8921 20.4232 35.9138C21.1762 36.0098 21.9482 35.792 22.7109 35.7558L22.0865 22.8154L19.3778 24.5586Z" fill="#FFCA28"/>
<path d="M22.7108 35.7558C23.4636 35.7197 24.2557 35.8655 25.0042 35.6959C25.7387 35.5295 26.3889 35.0609 27.0988 34.7619C27.7893 34.4715 28.5802 34.3376 29.2316 33.9184C29.8832 33.499 30.3328 32.8347 30.8832 32.3266C31.4492 31.8044 32.1452 31.4067 32.601 30.8071C32.83 30.5056 32.9936 30.1631 33.1419 29.8124C33.3978 29.2085 33.1483 28.51 32.5652 28.2097C29.7319 26.7511 22.0865 22.8154 22.0865 22.8154L22.7108 35.7558Z" fill="#FFE082"/>
<path d="M22.0864 22.8155L22.1722 24.5914L30.8272 29.0465C30.41 29.9163 30.2539 30.5414 29.8227 31.1089C29.3669 31.7085 28.6709 32.1062 28.1047 32.6285C27.5542 33.1363 27.1048 33.8009 26.4533 34.2201C25.8019 34.6394 25.0109 34.773 24.3206 35.0637C23.8452 35.2639 23.3964 35.54 22.9314 35.7504C23.6192 35.7455 24.3288 35.8489 25.0041 35.696C25.7387 35.5296 26.389 35.0608 27.0991 34.7621C27.7892 34.4716 28.5801 34.3377 29.2318 33.9183C29.8832 33.4991 30.3327 32.8347 30.8832 32.3269C31.4491 31.8045 32.1452 31.4068 32.6009 30.8072C32.83 30.5059 32.9936 30.1631 33.142 29.8127C33.3978 29.2086 33.1485 28.5099 32.5655 28.2098C29.7318 26.7512 22.0864 22.8155 22.0864 22.8155V22.8155Z" fill="#FFCA28"/>
<path d="M10.5674 16.8861C10.2185 17.5652 9.70042 18.1776 9.47583 18.9028C9.25047 19.63 9.33215 20.4286 9.23602 21.1838C9.13999 21.9369 8.86017 22.6895 8.89631 23.4521C8.93202 24.2078 9.28033 24.9304 9.44959 25.6779C9.61601 26.4125 9.61067 27.2149 9.90948 27.9246C10.1999 28.6151 10.7744 29.1739 11.1936 29.8253L22.0863 22.8155L10.5674 16.8861Z" fill="#FFE082"/>
<path d="M10.5674 16.886C10.3342 17.3398 10.0258 17.7642 9.77957 18.2121L17.3836 22.1263C18.2389 22.5667 18.2969 23.7679 17.4878 24.2886L10.4498 28.8178C10.6972 29.1498 10.9677 29.4742 11.1937 29.8253L22.0864 22.8154L10.5674 16.886Z" fill="#FFCA28"/>
<path d="M19.1689 9.9348C18.4343 10.1012 17.784 10.57 17.0742 10.8688C16.3838 11.1592 15.5929 11.2931 14.9412 11.7124C14.2898 12.1317 13.8403 12.796 13.2899 13.3041C12.7239 13.8263 12.0278 14.224 11.5721 14.8236C11.1083 15.4339 10.9133 16.2126 10.5677 16.8856C10.5675 16.8857 10.5676 16.8859 10.5676 16.8859L22.0864 22.8154L21.462 9.87501L21.4617 9.87494C20.706 9.91066 19.9164 9.76555 19.1689 9.9348V9.9348Z" fill="#FFE082"/>
<path d="M21.4617 9.87495C20.706 9.91067 19.9164 9.76556 19.1689 9.93481C19.0019 9.97261 18.8394 10.0269 18.6795 10.0906L19.2224 21.3412L22.0864 22.8154L21.462 9.87503L21.4617 9.87495Z" fill="#FFCA28"/>
<path d="M32.1836 16.3176C32.6221 16.0354 32.7717 15.4645 32.5277 15.0031C32.309 14.5893 32.0887 14.1821 31.7816 13.8493C31.2595 13.2833 30.5266 12.9556 29.9271 12.5C29.3167 12.0361 28.8037 11.4198 28.1306 11.074C27.4513 10.7253 26.6506 10.668 25.9254 10.4434C25.198 10.2182 24.5051 9.81317 23.7499 9.71704C22.9971 9.62088 22.2251 9.8387 21.4622 9.87497L22.0866 22.8154L27.3941 19.3998L29.087 22.0306C29.433 22.5686 30.1495 22.7239 30.6874 22.3777C31.3095 21.9774 31.4135 21.2345 31.0752 20.7088L30.8425 20.3472C30.6203 20.0019 30.7203 19.5419 31.0656 19.3196C31.4109 19.0974 31.871 19.197 32.0932 19.5424L33.901 22.3515C34.1732 22.7744 34.7367 22.8967 35.1594 22.6246C35.5823 22.3525 35.7045 21.789 35.4324 21.366L32.1836 16.3176Z" fill="#FFE082"/>
<path d="M31.7816 13.8493C31.2595 13.2833 30.5266 12.9556 29.9271 12.5C29.3167 12.0361 28.8037 11.4198 28.1306 11.074C27.4513 10.7253 26.6506 10.668 25.9254 10.4434C25.198 10.2182 24.5051 9.81317 23.7499 9.71704C22.9971 9.62088 22.2251 9.8387 21.4622 9.87497L21.4744 10.1258C22.0413 10.2891 22.5838 10.5708 23.147 10.7452C23.8721 10.9698 24.673 11.027 25.3522 11.3758C26.0252 11.7214 26.5385 12.3378 27.1488 12.8015C27.7484 13.2573 28.4811 13.5847 29.0034 14.1509C29.0084 14.1564 29.0134 14.1619 29.0185 14.1676C29.8305 15.0622 29.6254 16.4777 28.6096 17.1314L22.0171 21.3739L22.0866 22.8154L30.0817 17.6703L31.1221 19.287C31.4596 19.109 31.8829 19.2155 32.0932 19.5424L33.9012 22.3517C34.1733 22.7746 34.7367 22.8967 35.1594 22.6246C35.5823 22.3525 35.7045 21.789 35.4325 21.3662L32.1836 16.3176C32.6219 16.0356 32.7717 15.4645 32.5277 15.0031C32.309 14.5893 32.0887 14.1821 31.7816 13.8493V13.8493Z" fill="#FFCA28"/>
<path d="M27.3503 30.1384C27.9056 31.0013 27.6561 32.1507 26.7934 32.7058C25.9305 33.2611 24.7811 33.012 24.2258 32.1491C23.6705 31.2862 23.9199 30.1368 24.7828 29.5815C25.6455 29.0264 26.795 29.2755 27.3503 30.1384V30.1384Z" fill="#EF5350"/>
<path d="M20.8852 30.7955C21.4405 31.6584 21.1914 32.8079 20.3285 33.3632C19.4656 33.9185 18.3162 33.669 17.7609 32.8061C17.2057 31.9434 17.4549 30.794 18.3178 30.2387C19.1807 29.6834 20.33 29.9328 20.8852 30.7955Z" fill="#EF5350"/>
<path d="M16.9923 21.9214C17.5476 22.7842 17.2983 23.9338 16.4354 24.4891C15.5727 25.0443 14.4231 24.795 13.8678 23.9321C13.3127 23.0694 13.562 21.9198 14.4247 21.3646C15.2876 20.8093 16.4372 21.0587 16.9923 21.9214Z" fill="#EF5350"/>
<path d="M16.8659 14.5167C17.4212 15.3796 17.1718 16.5292 16.309 17.0845C15.4461 17.6398 14.2967 17.3903 13.7414 16.5274C13.1862 15.6647 13.4353 14.5153 14.2982 13.96C15.1611 13.4047 16.3107 13.654 16.8659 14.5167Z" fill="#EF5350"/>
<path d="M24.9728 12.0343C25.2504 12.4656 25.1257 13.0406 24.6943 13.3182C24.263 13.5958 23.688 13.4711 23.4104 13.0397C23.1327 12.6082 23.2576 12.0334 23.6889 11.7558C24.1202 11.4782 24.6951 11.6027 24.9728 12.0343Z" fill="#FF6F00"/>
<path d="M25.0695 17.7089C25.3471 18.1402 25.2226 18.715 24.791 18.9928C24.3597 19.2703 23.7849 19.1455 23.5074 18.7142C23.2298 18.2828 23.3543 17.708 23.7856 17.4304C24.2172 17.1527 24.7919 17.2775 25.0695 17.7089Z" fill="#FF6F00"/>
<path d="M20.0342 11.8984C20.3119 12.3299 20.1873 12.9045 19.7557 13.1822C19.3244 13.4598 18.7498 13.3352 18.4721 12.9037C18.1945 12.4723 18.3191 11.8977 18.7505 11.6201C19.182 11.3424 19.7566 11.467 20.0342 11.8984Z" fill="#FF6F00"/>
<path d="M20.08 17.9809C20.3576 18.4122 20.233 18.9869 19.8014 19.2646C19.3701 19.5422 18.7954 19.4175 18.5179 18.9862C18.2401 18.5546 18.3648 17.98 18.7961 17.7024C19.2277 17.4247 19.8023 17.5494 20.08 17.9809Z" fill="#FF6F00"/>
<path d="M12.8671 26.0074C13.1447 26.4388 13.0201 27.0134 12.5885 27.2911C12.1572 27.5687 11.5825 27.4441 11.305 27.0127C11.0272 26.5812 11.1519 26.0066 11.5832 25.729C12.0148 25.4513 12.5894 25.5759 12.8671 26.0074Z" fill="#FF6F00"/>
<path d="M19.7378 26.8257C20.0155 27.2573 19.8907 27.832 19.4593 28.1096C19.0278 28.3873 18.4531 28.2627 18.1754 27.8311C17.8979 27.3998 18.0225 26.8252 18.454 26.5475C18.8854 26.2699 19.4602 26.3944 19.7378 26.8257V26.8257Z" fill="#FF6F00"/>
<path d="M12.3513 19.3213C11.9639 18.985 11.3772 19.0266 11.0411 19.4142C10.7048 19.8017 10.7464 20.3883 11.1338 20.7246C11.5215 21.0607 12.1081 21.0191 12.4443 20.6315C12.7805 20.2441 12.7389 19.6574 12.3513 19.3213Z" fill="#FF6F00"/>
<path d="M15.9037 30.108C16.1814 30.5396 16.0568 31.1142 15.6255 31.3918C15.1939 31.6695 14.6193 31.5449 14.3416 31.1133C14.064 30.682 14.1885 30.1072 14.62 29.8294C15.0514 29.5519 15.6261 29.6767 15.9037 30.108V30.108Z" fill="#FF6F00"/>
<path d="M30.7743 29.0397C31.0519 29.471 30.9272 30.046 30.4958 30.3236C30.0645 30.6011 29.4895 30.4764 29.2119 30.0451C28.9342 29.6135 29.0591 29.0388 29.4904 28.7612C29.9217 28.4836 30.4966 28.6081 30.7743 29.0397V29.0397Z" fill="#FF6F00"/>
<path d="M25.381 26.2184C25.6586 26.6498 25.5341 27.2246 25.1026 27.5023C24.6712 27.7799 24.0965 27.6551 23.8189 27.2237C23.5412 26.7922 23.6658 26.2176 24.0971 25.94C24.5287 25.6623 25.1033 25.7869 25.381 26.2184Z" fill="#FF6F00"/>
<path d="M29.3114 14.1424C29.8667 15.0053 29.6174 16.1549 28.7547 16.71C27.8918 17.2653 26.7422 17.016 26.1869 16.1531C25.6318 15.2904 25.8811 14.1408 26.744 13.5855C27.6067 13.0304 28.7563 13.2797 29.3114 14.1424Z" fill="#EF5350"/>
<path d="M25.1301 29.4063C25.3904 29.5501 25.6198 29.7586 25.7922 30.0266C26.4301 31.0178 25.9954 32.3485 24.8882 32.7692C25.467 33.0889 26.1983 33.0889 26.7935 32.7058C27.6564 32.1505 27.9057 31.0013 27.3504 30.1384C26.8669 29.3872 25.933 29.1013 25.1301 29.4063Z" fill="#D32F2F"/>
<path d="M18.665 30.0635C18.9254 30.2074 19.1548 30.416 19.3271 30.6837C19.8823 31.5463 19.633 32.6959 18.7703 33.2511C18.6588 33.3229 18.5423 33.381 18.4231 33.4263C19.0021 33.7462 19.7334 33.7462 20.3286 33.3632C21.1914 32.8079 21.4406 31.6584 20.8853 30.7955C20.4019 30.0443 19.4679 29.7584 18.665 30.0635V30.0635Z" fill="#D32F2F"/>
<path d="M14.7719 21.1894C15.0323 21.3333 15.262 21.5417 15.4343 21.8094C15.9896 22.6723 15.7401 23.8217 14.8772 24.377C14.7657 24.4488 14.6493 24.5069 14.5301 24.5522C15.109 24.8721 15.8405 24.872 16.4355 24.4891C17.2984 23.9338 17.5477 22.7842 16.9924 21.9213C16.509 21.1701 15.5749 20.8843 14.7719 21.1894Z" fill="#D32F2F"/>
<path d="M14.6452 13.7848C14.9056 13.9288 15.1353 14.1372 15.3076 14.4049C15.8627 15.2676 15.6134 16.4172 14.7505 16.9725C14.639 17.0442 14.5225 17.1023 14.4034 17.1477C14.9823 17.4676 15.7138 17.4674 16.3088 17.0845C17.1717 16.5292 17.421 15.3796 16.8657 14.5167C16.3823 13.7655 15.4482 13.4797 14.6452 13.7848Z" fill="#D32F2F"/>
<path d="M27.0907 13.4104C27.3512 13.5544 27.5808 13.7628 27.7531 14.0305C28.3083 14.8932 28.0589 16.0428 27.1961 16.5981C27.0846 16.6698 26.9683 16.7278 26.8489 16.7733C27.4278 17.0932 28.1594 17.093 28.7545 16.71C29.6172 16.1548 29.8666 15.0052 29.3113 14.1424C28.8278 13.3912 27.8939 13.1052 27.0907 13.4104V13.4104Z" fill="#D32F2F"/>
</svg>
