<svg width="1386" height="1385" viewBox="0 0 1386 1385" fill="none" xmlns="http://www.w3.org/2000/svg">
<path d="M690.202 694.075L280 958.053C278.158 969.6 281.019 981.531 287.947 990.944C380.766 1116.95 527.029 1191.4 682.364 1193.97C693.607 1194.16 705.044 1189.91 713.703 1181.37C713.707 1181.38 713.711 1181.38 713.721 1181.39L690.202 694.075Z" fill="#FFA000"/>
<path d="M256.417 470.783C256.421 470.79 256.421 470.79 256.419 470.8C245.512 474.97 236.633 483.406 231.977 494.105C170.019 636.426 177.066 800.398 253.357 937.193C259.054 947.399 268.728 954.946 280 958.053L690.203 694.074L256.417 470.783Z" fill="#FFA000"/>
<path d="M666.691 206.759C657.644 199.398 645.934 195.892 634.371 197.182C479.615 214.447 340.993 303.591 261.098 437.396C255.127 447.39 253.473 459.496 256.424 470.779L690.203 694.074L666.691 206.759Z" fill="#FFA000"/>
<path d="M713.719 1181.38C722.766 1188.75 734.469 1192.26 746.039 1190.96C900.785 1173.69 1039.42 1084.55 1119.31 950.748C1132.25 929.083 1124.01 900.909 1101.58 889.353L719.459 692.664L690.2 694.074L713.719 1181.38Z" fill="#FFA000"/>
<path d="M1092.46 397.204C999.641 271.189 853.376 196.745 698.048 194.173C686.382 193.978 675.026 198.564 666.705 206.768C666.701 206.761 666.69 206.759 666.69 206.759L690.203 694.074L719.462 692.664L1080.79 460.138C1102.07 446.443 1107.44 417.545 1092.46 397.204Z" fill="#FFA000"/>
<path d="M605.549 748.549L626.849 1189.92C645.273 1192.3 663.817 1193.66 682.36 1193.97C693.603 1194.16 705.04 1189.91 713.692 1181.37C713.703 1181.38 713.707 1181.38 713.711 1181.39L690.198 694.074L605.549 748.549Z" fill="#F57C00"/>
<path d="M256.417 470.783C256.421 470.79 256.421 470.79 256.419 470.8C245.512 474.97 236.633 483.406 231.977 494.105C229.812 499.073 227.755 504.08 225.762 509.119L603.384 703.502L249.986 930.925C251.112 933.013 252.206 935.121 253.357 937.193C259.054 947.399 268.728 954.946 280 958.053L690.203 694.074L256.417 470.783Z" fill="#F57C00"/>
<path d="M634.368 197.182C611.727 199.713 589.508 203.759 567.74 209.239C572.09 210.895 576.205 213.2 579.864 216.18L600.701 648.005L690.2 694.074L666.688 206.759C657.641 199.398 645.931 195.892 634.368 197.182Z" fill="#F57C00"/>
<path d="M1101.58 889.36L719.459 692.665L690.199 694.074L692.061 732.678L1014.76 898.781C1037.19 910.331 1045.42 938.509 1032.49 960.176C961.915 1078.38 848.129 1157.57 725.846 1188.33C732.236 1190.76 739.158 1191.73 746.038 1190.96C822.969 1182.38 895.208 1156.64 960.745 1114.47C1026.28 1072.29 1079.63 1017.21 1119.31 950.748C1132.25 929.084 1124.01 900.909 1101.58 889.36V889.36Z" fill="#F57C00"/>
<path d="M1092.46 385.461C999.641 259.446 853.376 185.001 698.048 182.43C686.382 182.235 675.026 186.821 666.705 195.024C666.701 195.018 666.69 195.016 666.69 195.016L666.733 195.914C803.864 213.616 925.362 285.908 1005.64 394.889C1020.61 415.228 1015.25 444.121 993.96 457.82L688.847 654.17L690.203 682.331L719.462 680.921L1080.79 448.395C1102.07 434.7 1107.44 405.802 1092.46 385.461Z" fill="#F57C00"/>
<path d="M349.8 913.132C362.9 933.489 371.356 957.062 387.233 974.262C403.552 991.95 426.447 1002.19 445.181 1016.43C464.255 1030.93 480.294 1050.18 501.324 1060.98C522.558 1071.89 547.58 1073.68 570.242 1080.69C592.967 1087.73 614.626 1100.39 638.218 1103.4C661.751 1106.4 685.877 1099.59 709.71 1098.46L690.199 694.074L349.8 913.132Z" fill="#FFE082"/>
<path d="M605.554 748.548L622.521 1100.05C627.68 1101.54 632.905 1102.72 638.223 1103.4C661.756 1106.4 685.882 1099.59 709.715 1098.46L690.203 694.073L605.554 748.548Z" fill="#FFCA28"/>
<path d="M709.713 1098.46C733.237 1097.33 757.99 1101.89 781.38 1096.59C804.335 1091.39 824.652 1076.75 846.838 1067.4C868.414 1058.33 893.131 1054.14 913.488 1041.04C933.851 1027.94 947.899 1007.18 965.099 991.299C982.786 974.981 1004.54 962.553 1018.78 943.815C1025.94 934.393 1031.05 923.689 1035.69 912.731C1043.68 893.859 1035.89 872.03 1017.66 862.645C929.121 817.066 690.202 694.074 690.202 694.074L709.713 1098.46Z" fill="#FFE082"/>
<path d="M690.2 694.075L692.88 749.572L963.349 888.796C950.311 915.977 945.434 935.509 931.96 953.244C917.717 971.982 895.965 984.41 878.271 1000.73C861.067 1016.6 847.024 1037.37 826.667 1050.47C806.31 1063.57 781.589 1067.75 760.017 1076.83C745.163 1083.09 731.136 1091.72 716.605 1098.29C738.1 1098.14 760.276 1101.37 781.378 1096.59C804.333 1091.39 824.656 1076.74 846.847 1067.41C868.413 1058.33 893.129 1054.14 913.492 1041.04C933.849 1027.94 947.897 1007.18 965.101 991.306C982.785 974.982 1004.54 962.554 1018.78 943.816C1025.94 934.4 1031.05 923.69 1035.69 912.739C1043.68 893.86 1035.89 872.027 1017.67 862.649C929.12 817.067 690.2 694.075 690.2 694.075V694.075Z" fill="#FFCA28"/>
<path d="M330.23 508.78C319.328 530.004 303.138 549.142 296.119 571.804C289.077 594.527 291.629 619.485 288.625 643.084C285.624 666.618 276.88 690.136 278.009 713.969C279.125 737.584 290.01 760.165 295.299 783.526C300.5 806.481 300.333 831.557 309.671 853.736C318.747 875.313 336.699 892.775 349.799 913.132L690.198 694.074L330.23 508.78Z" fill="#FFE082"/>
<path d="M330.236 508.781C322.949 522.96 313.31 536.222 305.615 550.219L543.24 672.538C569.97 686.302 571.781 723.84 546.497 740.112L326.559 881.649C334.289 892.025 342.745 902.161 349.805 913.132L690.204 694.074L330.236 508.781Z" fill="#FFCA28"/>
<path d="M599.031 291.553C576.076 296.754 555.753 311.402 533.574 320.74C511.997 329.817 487.281 334 466.917 347.105C446.56 360.205 432.513 380.967 415.313 396.845C397.625 413.163 375.874 425.591 361.63 444.329C347.138 463.399 341.043 487.735 330.244 508.766C330.237 508.77 330.241 508.776 330.241 508.776L690.203 694.074L670.692 289.685L670.681 289.683C647.067 290.799 622.392 286.264 599.031 291.553V291.553Z" fill="#FFE082"/>
<path d="M670.679 289.683C647.064 290.799 622.389 286.264 599.029 291.554C593.81 292.735 588.733 294.432 583.736 296.423L600.701 648.005L690.201 694.074L670.689 289.685L670.679 289.683Z" fill="#FFCA28"/>
<path d="M1005.73 491.018C1019.44 482.199 1024.11 464.356 1016.49 449.939C1009.65 437.008 1002.77 424.282 993.174 413.881C976.856 396.194 953.954 385.955 935.22 371.718C916.146 357.219 900.114 337.959 879.079 327.154C857.849 316.256 832.827 314.467 810.165 307.449C787.436 300.41 765.782 287.753 742.183 284.749C718.656 281.744 694.53 288.551 670.691 289.685L690.202 694.074L856.062 587.338L908.967 669.549C919.778 686.362 942.17 691.213 958.98 680.396C978.419 667.886 981.671 644.672 971.097 628.241L963.827 616.943C956.882 606.152 960.006 591.776 970.797 584.831C981.588 577.887 995.967 581 1002.91 591.791L1059.4 679.577C1067.91 692.794 1085.52 696.613 1098.73 688.112C1111.95 679.607 1115.76 661.998 1107.26 648.781L1005.73 491.018Z" fill="#FFE082"/>
<path d="M993.174 413.881C976.856 396.194 953.954 385.955 935.22 371.718C916.146 357.219 900.114 337.959 879.079 327.154C857.849 316.256 832.827 314.467 810.165 307.449C787.436 300.41 765.782 287.753 742.183 284.749C718.656 281.744 694.53 288.551 670.691 289.685L671.072 297.523C688.789 302.625 705.742 311.43 723.34 316.881C746.002 323.899 771.03 325.684 792.253 336.586C813.284 347.385 829.327 366.647 848.397 381.139C867.135 395.383 890.033 405.615 906.355 423.309C906.511 423.481 906.667 423.653 906.827 423.831C932.201 451.785 925.793 496.02 894.048 516.449L688.032 649.027L690.202 694.074L940.05 533.288L972.564 583.812C983.11 578.25 996.338 581.577 1002.91 591.791L1059.41 679.584C1067.91 692.8 1085.52 696.613 1098.73 688.112C1111.95 679.607 1115.76 661.998 1107.26 648.788L1005.73 491.018C1019.43 482.204 1024.11 464.356 1016.49 449.939C1009.65 437.008 1002.77 424.282 993.174 413.881V413.881Z" fill="#FFCA28"/>
<path d="M854.695 922.917C872.048 949.882 864.252 985.801 837.293 1003.15C810.328 1020.5 774.407 1012.72 757.054 985.752C739.701 958.787 747.497 922.868 774.462 905.515C801.421 888.166 837.342 895.951 854.695 922.917V922.917Z" fill="#EF5350"/>
<path d="M652.663 943.452C670.016 970.417 662.231 1006.34 635.266 1023.69C608.3 1041.04 572.382 1033.25 555.029 1006.28C537.68 979.324 545.465 943.403 572.431 926.05C599.396 908.697 635.314 916.493 652.663 943.452Z" fill="#EF5350"/>
<path d="M531.015 666.133C548.368 693.099 540.576 729.024 513.61 746.377C486.652 763.726 450.727 755.934 433.374 728.969C416.025 702.01 423.816 666.085 450.775 648.736C477.741 631.383 513.666 639.174 531.015 666.133Z" fill="#EF5350"/>
<path d="M527.059 434.739C544.412 461.704 536.62 497.629 509.655 514.982C482.69 532.335 446.771 524.539 429.418 497.574C412.069 470.615 419.855 434.694 446.82 417.341C473.785 399.988 509.71 407.78 527.059 434.739Z" fill="#EF5350"/>
<path d="M780.396 357.163C789.071 370.643 785.174 388.61 771.694 397.285C758.215 405.959 740.247 402.062 731.573 388.583C722.894 375.097 726.795 357.136 740.275 348.461C753.754 339.787 771.718 343.677 780.396 357.163Z" fill="#FF6F00"/>
<path d="M783.42 534.495C792.094 547.974 788.204 565.938 774.718 574.616C761.238 583.291 743.277 579.39 734.602 565.91C725.928 552.431 729.819 534.467 743.298 525.793C756.784 517.114 774.745 521.015 783.42 534.495Z" fill="#FF6F00"/>
<path d="M626.068 352.915C634.747 366.401 630.852 384.358 617.366 393.036C603.887 401.711 585.929 397.816 577.251 384.33C568.576 370.851 572.471 352.894 585.951 344.219C599.436 335.541 617.394 339.435 626.068 352.915Z" fill="#FF6F00"/>
<path d="M627.499 542.994C636.173 556.473 632.278 574.43 618.793 583.109C605.313 591.783 587.356 587.889 578.682 574.409C570.003 560.923 573.898 542.966 587.377 534.292C600.863 525.613 618.82 529.508 627.499 542.994Z" fill="#FF6F00"/>
<path d="M402.097 793.824C410.772 807.303 406.877 825.261 393.391 833.939C379.912 842.614 361.954 838.719 353.28 825.239C344.601 811.754 348.496 793.796 361.975 785.122C375.461 776.443 393.419 780.338 402.097 793.824Z" fill="#FF6F00"/>
<path d="M616.806 819.395C625.484 832.88 621.583 850.842 608.104 859.516C594.618 868.195 576.661 864.3 567.982 850.814C559.308 837.335 563.202 819.378 576.688 810.699C590.168 802.025 608.131 805.915 616.806 819.395V819.395Z" fill="#FF6F00"/>
<path d="M385.979 584.882C373.873 574.373 355.539 575.674 345.035 587.787C334.526 599.894 335.827 618.227 347.934 628.736C360.047 639.24 378.38 637.939 388.885 625.826C399.393 613.72 398.092 595.386 385.979 584.882Z" fill="#FF6F00"/>
<path d="M496.99 921.968C505.669 935.454 501.774 953.411 488.294 962.085C474.809 970.764 456.851 966.869 448.173 953.383C439.498 939.904 443.389 921.94 456.875 913.262C470.354 904.587 488.316 908.488 496.99 921.968V921.968Z" fill="#FF6F00"/>
<path d="M961.696 888.582C970.37 902.061 966.473 920.029 952.994 928.704C939.514 937.378 921.547 933.481 912.872 920.002C904.194 906.516 908.095 888.554 921.574 879.88C935.054 871.206 953.017 875.096 961.696 888.582V888.582Z" fill="#FF6F00"/>
<path d="M793.161 800.418C801.835 813.897 797.944 831.861 784.459 840.539C770.979 849.214 753.018 845.313 744.343 831.833C735.665 818.347 739.56 800.39 753.039 791.716C766.525 783.037 784.482 786.932 793.161 800.418Z" fill="#FF6F00"/>
<path d="M915.98 423.041C933.333 450.006 925.541 485.931 898.582 503.28C871.617 520.633 835.692 512.841 818.339 485.876C800.99 458.917 808.782 422.992 835.747 405.639C862.706 388.29 898.631 396.082 915.98 423.041Z" fill="#EF5350"/>
<path d="M785.314 900.04C793.449 904.532 800.619 911.049 806.007 919.422C825.94 950.397 812.356 991.983 777.757 1005.13C795.844 1015.12 818.698 1015.12 837.298 1003.15C864.263 985.797 872.052 949.882 854.699 922.917C839.592 899.442 810.407 890.506 785.314 900.04Z" fill="#D32F2F"/>
<path d="M583.282 920.575C591.42 925.073 598.59 931.591 603.974 939.957C621.323 966.916 613.531 1002.84 586.572 1020.19C583.089 1022.43 579.449 1024.25 575.725 1025.66C593.816 1035.66 616.67 1035.66 635.269 1023.69C662.234 1006.34 670.02 970.417 652.667 943.452C637.56 919.977 608.374 911.041 583.282 920.575V920.575Z" fill="#D32F2F"/>
<path d="M461.626 643.261C469.764 647.758 476.941 654.272 482.325 662.638C499.678 689.604 491.882 725.522 464.917 742.875C461.433 745.117 457.793 746.933 454.069 748.35C472.16 758.346 495.02 758.342 513.613 746.377C540.578 729.024 548.37 693.099 531.017 666.133C515.91 642.658 486.719 633.727 461.626 643.261Z" fill="#D32F2F"/>
<path d="M457.668 411.867C465.806 416.365 472.983 422.879 478.367 431.245C495.716 458.204 487.924 494.129 460.958 511.482C457.475 513.724 453.835 515.54 450.111 516.957C468.202 526.953 491.062 526.948 509.655 514.983C536.62 497.63 544.412 461.705 527.059 434.74C511.952 411.265 482.76 402.333 457.668 411.867Z" fill="#D32F2F"/>
<path d="M846.589 400.167C854.727 404.665 861.904 411.179 867.288 419.545C884.637 446.504 876.845 482.429 849.88 499.782C846.396 502.024 842.763 503.836 839.032 505.257C857.123 515.253 879.984 515.248 898.583 503.279C925.542 485.93 933.333 450.005 915.98 423.04C900.873 399.565 871.688 390.629 846.589 400.167V400.167Z" fill="#D32F2F"/>
</svg>
